<svg width="38" height="38" viewBox="0 0 38 38" fill="none" xmlns="http://www.w3.org/2000/svg">
<rect width="17.7178" height="5.5951" rx="2.79755" transform="matrix(4.37114e-08 -1 -1 -4.37114e-08 17.7188 17.7178)" fill="#2285E1"/>
<rect width="10.9571" height="5.5951" rx="2.79755" transform="matrix(4.37114e-08 -1 -1 -4.37114e-08 9.79297 17.7178)" fill="#2285E1"/>
<rect width="17.7178" height="5.5951" rx="2.79755" transform="matrix(-1 0 0 1 17.7188 20.0493)" fill="#2285E1"/>
<rect width="10.9571" height="5.5951" rx="2.79755" transform="matrix(-1 0 0 1 17.7188 27.9756)" fill="#2285E1"/>
<rect width="17.7178" height="5.5951" rx="2.79755" transform="matrix(1 -8.74228e-08 -8.74228e-08 -1 20.2812 17.2515)" fill="#2285E1"/>
<rect width="10.9571" height="5.5951" rx="2.79755" transform="matrix(1 -8.74228e-08 -8.74228e-08 -1 20.2812 9.3252)" fill="#2285E1"/>
<rect width="17.7178" height="5.5951" rx="2.79755" transform="matrix(4.37114e-08 1 1 -4.37114e-08 20.5156 19.8159)" fill="#2285E1"/>
<rect width="10.9571" height="5.5951" rx="2.79755" transform="matrix(4.37114e-08 1 1 -4.37114e-08 28.4414 19.8159)" fill="#2285E1"/>
</svg>
